<svg width="6" height="7" viewBox="0 0 6 7" fill="none" xmlns="http://www.w3.org/2000/svg">
<g clip-path="url(#clip0_32_439)">
<path d="M3.33992 2.31427C2.62784 2.31427 2.05348 2.88567 2.05348 3.59408C2.05348 4.30249 2.62784 4.8739 3.33992 4.8739C4.052 4.8739 4.62636 4.30249 4.62636 3.59408C4.62636 2.88567 4.052 2.31427 3.33992 2.31427ZM3.33992 4.42613C2.87976 4.42613 2.50356 4.05299 2.50356 3.59408C2.50356 3.13518 2.87864 2.76204 3.33992 2.76204C3.8012 2.76204 4.17628 3.13518 4.17628 3.59408C4.17628 4.05299 3.80008 4.42613 3.33992 4.42613ZM4.97905 2.26192C4.97905 2.42788 4.84469 2.56043 4.67899 2.56043C4.51216 2.56043 4.37893 2.42677 4.37893 2.26192C4.37893 2.09707 4.51328 1.96341 4.67899 1.96341C4.84469 1.96341 4.97905 2.09707 4.97905 2.26192ZM5.83108 2.56489C5.81204 2.16501 5.72023 1.81081 5.42577 1.51898C5.13243 1.22715 4.77639 1.13581 4.37445 1.11576C3.96019 1.09237 2.71853 1.09237 2.30427 1.11576C1.90345 1.1347 1.54741 1.22604 1.25295 1.51786C0.958486 1.80969 0.867797 2.1639 0.847643 2.56377C0.824131 2.9759 0.824131 4.21116 0.847643 4.62328C0.866677 5.02316 0.958486 5.37736 1.25295 5.66919C1.54741 5.96102 1.90233 6.05236 2.30427 6.07241C2.71853 6.0958 3.96019 6.0958 4.37445 6.07241C4.77639 6.05347 5.13243 5.96213 5.42577 5.66919C5.71911 5.37736 5.81092 5.02316 5.83108 4.62328C5.85459 4.21116 5.85459 2.97701 5.83108 2.56489ZM5.2959 5.06548C5.20857 5.2838 5.03951 5.45199 4.81894 5.53998C4.48865 5.67031 3.70492 5.64023 3.33992 5.64023C2.97492 5.64023 2.19007 5.66919 1.8609 5.53998C1.64145 5.4531 1.47239 5.28491 1.38394 5.06548C1.25295 4.7369 1.28318 3.9572 1.28318 3.59408C1.28318 3.23097 1.25407 2.45016 1.38394 2.12269C1.47127 1.90437 1.64034 1.73618 1.8609 1.64819C2.19119 1.51786 2.97492 1.54794 3.33992 1.54794C3.70492 1.54794 4.48977 1.51898 4.81894 1.64819C5.03839 1.73507 5.20745 1.90326 5.2959 2.12269C5.42689 2.45127 5.39666 3.23097 5.39666 3.59408C5.39666 3.9572 5.42689 4.73801 5.2959 5.06548Z" fill="white"/>
</g>
<defs>
<clipPath id="clip0_32_439">
<rect width="5.06927" height="5.70292" fill="white" transform="translate(0.844276 0.743622)"/>
</clipPath>
</defs>
</svg>
