<svg width="11" height="11" viewBox="0 0 11 11" fill="none" xmlns="http://www.w3.org/2000/svg">
<rect x="0.260435" y="0.684156" width="9.82171" height="9.82171" stroke="white" stroke-width="0.316829"/>
<g clip-path="url(#clip0_32_431)">
<path d="M3.76203 7.81288V4.60642H2.68665V7.81288H3.76203ZM3.22448 4.16837C3.59949 4.16837 3.83291 3.92215 3.83291 3.61446C3.82592 3.29983 3.5995 3.06044 3.2316 3.06044C2.86375 3.06044 2.62321 3.29983 2.62321 3.61446C2.62321 3.92216 2.85657 4.16837 3.21746 4.16837H3.22445H3.22448ZM4.35725 7.81288H5.43263V6.02223C5.43263 5.9264 5.43962 5.83067 5.46802 5.76216C5.54576 5.57069 5.7227 5.37238 6.01977 5.37238C6.4089 5.37238 6.56458 5.66642 6.56458 6.09747V7.81286H7.63989V5.9743C7.63989 4.9894 7.10935 4.53114 6.40182 4.53114C5.8217 4.53114 5.56698 4.85251 5.42548 5.07139H5.43266V4.60635H4.35728C4.37139 4.90723 4.35728 7.81282 4.35728 7.81282L4.35725 7.81288Z" fill="white"/>
</g>
<defs>
<clipPath id="clip0_32_431">
<rect width="5.06927" height="4.75244" fill="white" transform="translate(2.6366 3.06049)"/>
</clipPath>
</defs>
</svg>
