<svg width="6" height="5" viewBox="0 0 6 5" fill="none" xmlns="http://www.w3.org/2000/svg">
<g clip-path="url(#clip0_32_434)">
<path d="M1.76203 4.81288V1.60642H0.686654V4.81288H1.76203ZM1.22448 1.16837C1.59949 1.16837 1.83291 0.922147 1.83291 0.614455C1.82592 0.299825 1.5995 0.0604401 1.2316 0.0604401C0.863755 0.0604401 0.623207 0.29983 0.623207 0.614455C0.623207 0.922161 0.856571 1.16837 1.21746 1.16837H1.22445H1.22448ZM2.35725 4.81288H3.43263V3.02223C3.43263 2.9264 3.43962 2.83067 3.46802 2.76216C3.54576 2.57069 3.7227 2.37238 4.01977 2.37238C4.4089 2.37238 4.56458 2.66642 4.56458 3.09747V4.81286H5.63989V2.9743C5.63989 1.9894 5.10935 1.53114 4.40182 1.53114C3.8217 1.53114 3.56698 1.85251 3.42548 2.07139H3.43266V1.60635H2.35728C2.37139 1.90723 2.35728 4.81282 2.35728 4.81282L2.35725 4.81288Z" fill="white"/>
</g>
<defs>
<clipPath id="clip0_32_434">
<rect width="5.06927" height="4.75244" fill="white" transform="translate(0.636604 0.0604858)"/>
</clipPath>
</defs>
</svg>
