<svg width="12" height="11" viewBox="0 0 12 11" fill="none" xmlns="http://www.w3.org/2000/svg">
<rect x="1.05256" y="0.684156" width="9.82171" height="9.82171" stroke="white" stroke-width="0.316829"/>
<g clip-path="url(#clip0_32_426)">
<path d="M8.74489 3.91753C8.53359 4.00766 8.30946 4.06682 8.07996 4.09305C8.31901 3.9551 8.50256 3.73665 8.58898 3.47637C8.36174 3.60621 8.11311 3.69769 7.85384 3.74686C7.64265 3.53023 7.34179 3.39485 7.0088 3.39485C6.36943 3.39485 5.85106 3.89393 5.85106 4.50948C5.85106 4.59686 5.86131 4.68192 5.88103 4.76352C4.91888 4.71702 4.06583 4.27327 3.49482 3.59889C3.39519 3.76352 3.3381 3.95501 3.3381 4.15926C3.3381 4.54599 3.5425 4.88715 3.85312 5.08705C3.66927 5.0815 3.48947 5.03369 3.32873 4.94761C3.32866 4.95228 3.32866 4.95695 3.32866 4.96164C3.32866 5.5017 3.72772 5.95222 4.25731 6.05462C4.08683 6.09926 3.90801 6.1058 3.73451 6.07372C3.88182 6.51656 4.30938 6.83881 4.81596 6.84783C4.41975 7.14678 3.92055 7.32499 3.37817 7.32499C3.28471 7.32499 3.19257 7.31971 3.102 7.30941C3.61433 7.62568 4.22286 7.81021 4.87664 7.81021C7.00611 7.81021 8.17055 6.11171 8.17055 4.63875C8.17055 4.59041 8.16945 4.54234 8.1672 4.49454C8.39385 4.33679 8.58947 4.14139 8.74489 3.91753Z" fill="white"/>
</g>
<defs>
<clipPath id="clip0_32_426">
<rect width="5.70292" height="4.43561" fill="white" transform="translate(3.112 3.37724)"/>
</clipPath>
</defs>
</svg>
